<svg width="133" height="81" viewBox="0 0 133 81" fill="none" xmlns="http://www.w3.org/2000/svg">
<path d="M119.742 48.5195L119.142 51.1195L112.602 79.1595H122.862L130.012 48.5195H119.742Z" fill="#fff"/>
<path d="M127.261 43.3806C130.088 43.3806 132.381 41.0883 132.381 38.2606C132.381 35.4329 130.088 33.1406 127.261 33.1406C124.433 33.1406 122.141 35.4329 122.141 38.2606C122.141 41.0883 124.433 43.3806 127.261 43.3806Z" fill="#fff"/>
<path d="M103.57 28H69.68V48.04C67.12 35.69 56.19 26.42 43.08 26.42C34.5 26.42 26.85 30.4 21.88 36.61L30.43 0H18.5L0 79.16H11.93L16.55 59.4C19.22 71.6 30.08 80.74 43.08 80.74C56.08 80.74 67.12 71.46 69.68 59.12V61.8C69.68 73.97 77.21 80.95 90.33 80.95C103.45 80.95 110.98 73.97 110.98 61.8V28H103.57Z" fill="#fff"/>
</svg>
